<svg xmlns="http://www.w3.org/2000/svg" viewBox="0 0 1002 285" fill="none">
  <defs>
    <!-- Red Gradients -->
    <linearGradient id="gradRed" x1="0" y1="0" x2="0" y2="1">
      <stop offset="0%" stop-color="#FF4B2B"/>
      <stop offset="100%" stop-color="#FF416C"/>
    </linearGradient>
    <linearGradient id="gradRedDark" x1="0" y1="0" x2="1" y2="1">
      <stop offset="0%" stop-color="#E53935"/>
      <stop offset="100%" stop-color="#B71C1C"/>
    </linearGradient>
    <!-- Purple-Blue Gradient -->
    <linearGradient id="gradPurpleBlue" x1="0" y1="0" x2="1" y2="1">
      <stop offset="0%" stop-color="#6C63FF"/>
      <stop offset="100%" stop-color="#4FC3F7"/>
    </linearGradient>
    <!-- Violet Gradient -->
    <linearGradient id="gradViolet" x1="0" y1="0" x2="1" y2="1">
      <stop offset="0%" stop-color="#8E2DE2"/>
      <stop offset="100%" stop-color="#4A00E0"/>
    </linearGradient>
    <!-- Shadows -->
    <filter id="shadow" x="-20%" y="-20%" width="140%" height="140%">
      <feDropShadow dx="4" dy="4" stdDeviation="4" flood-color="#000" flood-opacity="0.25"/>
    </filter>
  </defs>

  <g filter="url(#shadow)">
    <!-- Left Red Cubes -->
    <path fill="url(#gradRed)" d="M132.693 132.957V65.953h67.003l-67.003 67.004Z"/>
    <path fill="url(#gradRed)" d="M67.003 132.957V65.953h67.004l-67.004 67.004Z"/>
    <path fill="#C62828" d="M162.91 131.643H67.003v48.61h95.907v-48.61Z"/>
    <path fill="url(#gradRed)" d="M67.004 131.643H0v48.61h67.004v-48.61Z"/>
    <path fill="#E53935" d="M134.007 65.953v67.004H67.003l67.004-67.004Z"/>
    <path fill="#E53935" d="M67.004 65.953v67.004H0l67.004-67.004Z"/>

    <!-- Circular Icon -->
    <circle cx="251.5" cy="103.5" r="51.2" fill="url(#gradPurpleBlue)" />
    <circle cx="251.5" cy="103.5" r="21" fill="#fff"/>

    <!-- Abstract Cube Right -->
    <path fill="url(#gradPurpleBlue)" d="M298.831 154.476V87.473h67.003l-67.003 67.003Z"/>

    <!-- Decorative Donut Rings -->
    <g stroke="#6C63FF" stroke-width="3.271">
      <circle cx="939.475" cy="222.95" r="59.96"/>
      <circle cx="939.475" cy="222.95" r="49.06"/>
      <circle cx="939.475" cy="222.95" r="39.25"/>
      <circle cx="939.475" cy="222.95" r="28.35"/>
      <circle cx="939.475" cy="222.95" r="17.44"/>
    </g>
    <circle cx="939.476" cy="222.95" r="7.63" fill="url(#gradRed)"/>

    <!-- Red Block and Triangle Pyramid -->
    <rect x="862.615" y="140.64" width="55.6" height="40.34" fill="url(#gradRedDark)"/>
    <path fill="url(#gradRed)" d="M862.615 235.488v-55.601h55.601l-55.601 55.601Z"/>
    <path stroke="url(#gradRed)" stroke-width="2.18" d="m778.311 199.75 55.165-89.232 55.166 89.232H778.311Z"/>
    <path fill="url(#gradViolet)" d="m790.958 91 57.122 91.578H733.837L790.958 91Z"/>
  </g>
</svg>